<?xml version="1.0" standalone="no"?><!DOCTYPE svg PUBLIC "-//W3C//DTD SVG 1.1//EN" "http://www.w3.org/Graphics/SVG/1.1/DTD/svg11.dtd"><svg t="1564933012614" class="icon" viewBox="0 0 1024 1024" version="1.1" xmlns="http://www.w3.org/2000/svg" p-id="2324" xmlns:xlink="http://www.w3.org/1999/xlink" width="200" height="200"><defs><style type="text/css"></style></defs><path d="M0 0" p-id="2325" fill="#8e44ad"></path><path d="M618.666667 512c0-58.845867-47.786667-106.666667-106.666667-106.666667-58.845867 0-106.666667 47.8208-106.666667 106.666667 0 58.88 47.8208 106.666667 106.666667 106.666667 58.88 0 106.666667-47.786667 106.666667-106.666667z m-170.666667 0A64.056889 64.056889 0 0 1 512 448 64.056889 64.056889 0 0 1 576 512 64.056889 64.056889 0 0 1 512 576 64.056889 64.056889 0 0 1 448 512z" p-id="2326" fill="#8e44ad"></path><path d="M512 0C229.2736 0 0 229.239467 0 512s229.2736 512 512 512c282.737778 0 512-229.239467 512-512S794.737778 0 512 0zM149.333333 512c0 11.810133-9.5232 21.333333-21.333333 21.333333S106.666667 523.810133 106.666667 512C106.666667 288.494933 288.494933 106.666667 512 106.666667c11.810133 0 21.333333 9.5232 21.333333 21.333333s-9.5232 21.333333-21.333333 21.333333c-199.9872 0-362.666667 162.679467-362.666667 362.666667z m213.333334 0c0-82.3296 67.003733-149.333333 149.333333-149.333333S661.333333 429.6704 661.333333 512 594.3296 661.333333 512 661.333333 362.666667 594.3296 362.666667 512zM512 917.333333c-11.810133 0-21.333333-9.5232-21.333333-21.333333s9.5232-21.333333 21.333333-21.333333c199.907556 0 362.666667-162.759111 362.666667-362.666667 0-11.810133 9.5232-21.333333 21.333333-21.333333s21.333333 9.5232 21.333333 21.333333c0 223.516444-181.816889 405.333333-405.333333 405.333333z" p-id="2327" fill="#8e44ad"></path><path d="M533.333333 512a21.321956 21.321956 0 1 1-42.655289 0.011378A21.321956 21.321956 0 0 1 533.333333 512z" p-id="2328" fill="#8e44ad"></path></svg>