<?xml version="1.0" standalone="no"?><!DOCTYPE svg PUBLIC "-//W3C//DTD SVG 1.1//EN" "http://www.w3.org/Graphics/SVG/1.1/DTD/svg11.dtd"><svg t="1564933099309" class="icon" viewBox="0 0 1024 1024" version="1.1" xmlns="http://www.w3.org/2000/svg" p-id="5562" xmlns:xlink="http://www.w3.org/1999/xlink" width="200" height="200"><defs><style type="text/css"></style></defs><path d="M0 0" p-id="5563" fill="#8a8a8a"></path><path d="M512 34.133333c263.509333 0 477.866667 214.357333 477.866667 477.866667S775.509333 989.866667 512 989.866667 34.133333 775.509333 34.133333 512 248.490667 34.133333 512 34.133333z m0-34.133333C229.239467 0 0 229.239467 0 512s229.239467 512 512 512c282.794667 0 512-229.239467 512-512S794.7264 0 512 0z" p-id="5564" fill="#8a8a8a"></path><path d="M128 529.066667a17.066667 17.066667 0 0 1-17.066667-17.066667C110.933333 290.850133 290.850133 110.933333 512 110.933333c9.386667 0 17.066667 7.645867 17.066667 17.066667s-7.68 17.066667-17.066667 17.066667c-202.3424 0-366.933333 164.590933-366.933333 366.933333 0 9.4208-7.68 17.066667-17.066667 17.066667zM512 913.066667c-9.4208 0-17.066667-7.68-17.066667-17.066667s7.645867-17.066667 17.066667-17.066667c202.3424 0 366.933333-164.590933 366.933333-366.933333a17.066667 17.066667 0 0 1 34.133334 0c0 221.149867-179.9168 401.066667-401.066667 401.066667zM512 571.733333c-32.938667 0-59.733333-26.794667-59.733333-59.733333s26.794667-59.733333 59.733333-59.733333 59.733333 26.794667 59.733333 59.733333-26.794667 59.733333-59.733333 59.733333z m0-85.333333a25.6 25.6 0 1 0 0.022756 51.222756A25.6 25.6 0 0 0 512 486.4z" p-id="5565" fill="#8a8a8a"></path><path d="M512 657.066667c-79.9744 0-145.066667-65.058133-145.066667-145.066667 0-79.9744 65.092267-145.066667 145.066667-145.066667S657.066667 432.0256 657.066667 512c0 80.008533-65.092267 145.066667-145.066667 145.066667z m0-256c-61.166933 0-110.933333 49.7664-110.933333 110.933333s49.7664 110.933333 110.933333 110.933333 110.933333-49.7664 110.933333-110.933333-49.7664-110.933333-110.933333-110.933333z" p-id="5566" fill="#8a8a8a"></path></svg>