<?xml version="1.0" standalone="no"?><!DOCTYPE svg PUBLIC "-//W3C//DTD SVG 1.1//EN" "http://www.w3.org/Graphics/SVG/1.1/DTD/svg11.dtd"><svg t="1564934369233" class="icon" viewBox="0 0 1024 1024" version="1.1" xmlns="http://www.w3.org/2000/svg" p-id="1912" xmlns:xlink="http://www.w3.org/1999/xlink" width="200" height="200"><defs><style type="text/css"></style></defs><path d="M897.4 201.5l-134-132.2c-3.7-3.7-7.4-5.6-13-5.6-11.2 0-20.5 9.3-20.5 20.5v95c0 31.7 26.1 57.7 57.7 57.7h95c11.2 0 20.5-9.3 20.5-20.5-0.1-5.6-1.9-9.3-5.7-14.9z m-24.2 121H728c-48.4 0-87.5-39.1-87.5-85.7V91.6c1.9-14.9-11.2-27.9-27.9-27.9H381.7c-48.4 0-87.5 39.1-87.5 85.7v547.4c0 48.4 39.1 85.7 87.5 85.7h433.8c48.4 0 87.5-39.1 87.5-85.7V352.3c0-16.8-13-29.8-29.8-29.8zM208.5 698.6V236.9c-48.4 0-87.5 39.1-87.5 85.7V870c0 48.4 39.1 87.5 87.5 87.5h433.8c48.4 0 87.5-39.1 87.5-85.7H381.7c-95 0-173.2 0-173.2-173.2z" p-id="1913" fill="#8e44ad"></path></svg>