<?xml version="1.0" standalone="no"?><!DOCTYPE svg PUBLIC "-//W3C//DTD SVG 1.1//EN" "http://www.w3.org/Graphics/SVG/1.1/DTD/svg11.dtd"><svg t="1564934354893" class="icon" viewBox="0 0 1024 1024" version="1.1" xmlns="http://www.w3.org/2000/svg" p-id="1689" xmlns:xlink="http://www.w3.org/1999/xlink" width="200" height="200"><defs><style type="text/css"></style></defs><path d="M735.129764 524.644942 485.207073 524.644942c-15.338137 0-27.769187 12.409356-27.769187 27.725798s12.431051 27.747493 27.769187 27.747493l249.922691 0c15.338137 0 27.769187-12.431051 27.769187-27.747493S750.467902 524.644942 735.129764 524.644942zM735.129764 663.339019 485.207073 663.339019c-15.338137 0-27.769187 12.409356-27.769187 27.725798 0 15.338137 12.431051 27.747493 27.769187 27.747493l249.922691 0c15.338137 0 27.769187-12.409356 27.769187-27.747493C762.898953 675.77007 750.467902 663.339019 735.129764 663.339019zM735.129764 135.377333c-3.449454 0-333.230256 0-333.230256 0-58.749188 0-111.076752 53.911275-111.076752 111.076752l-32.086429 0.759314c-58.749188 0-106.75951 53.151961-106.75951 110.317438L151.976817 912.914595c0 57.165477 52.327563 111.076752 111.076752 111.076752l416.537819 0c58.749188 0 111.055057-53.911275 111.055057-111.076752l27.769187 0c58.749188 0 111.076752-53.911275 111.076752-111.076752L929.492386 413.069214l0-54.887536L735.129764 135.377333zM679.591388 968.452972 263.053569 968.452972c-29.157647 0-55.538376-27.248516-55.538376-55.538376L207.515192 357.530837c0-28.289861 23.755673-54.627199 52.891626-54.627199L290.822757 301.992461l0 499.845383c0 57.165477 52.327563 111.076752 111.076752 111.076752l333.230256 0C735.129764 941.204456 708.72734 968.452972 679.591388 968.452972zM873.954009 801.837844c0 28.289861-26.380729 55.538376-55.538376 55.538376L401.899509 857.37622c-29.157647 0-55.538376-27.248516-55.538376-55.538376L346.361133 246.454086c0-28.289861 26.380729-55.538376 55.538376-55.538376l277.69188 0c-0.455589 63.955911 0 111.770981 0 111.770981 0 57.686149 51.915365 110.382522 111.055057 110.382522 0 0 29.504762 0 83.307563 0L873.954009 801.837844zM790.66814 357.530837c-29.569846 0-55.538376-53.737717-55.538376-82.569944 0 0 0-29.222732 0-83.19909L735.129764 191.718412l138.824245 165.812424L790.66814 357.530837z" p-id="1690" fill="#8a8a8a"></path></svg>